# xmcd
#
# Track frame offsets: 
#        183
#        11418
#        22945
#        38385
#        46513
#        56775
#        76480
#        87275
#        106693
#        118688
#        132235
#        140238
#        154240
#
# Disc length: 2209 seconds
#
# Revision: 5
# Processed by: cddbd v1.5.2PL0 Copyright (c) Steve Scherf et al.
# Submitted via: ExactAudioCopy v1.1
#
DISCID=99089f0d
DTITLE=Alexis Korner - I Wonder Who
DYEAR=1966
DGENRE=Blues
TTITLE0=Watermelon Man (stereo)
TTITLE1=Streamline Train (stereo)
TTITLE2=Rock Me (stereo)
TTITLE3=Come Back (stereo)
TTITLE4=Going Down Slow (stereo)
TTITLE5=2.19 Blues (stereo)
TTITLE6=Rivers Invitation (stereo)
TTITLE7=I Wonder Who (stereo)
TTITLE8=Chicken Shack Back Home (stereo)
TTITLE9=County Jail Blues (stereo)
TTITLE10=Roll 'Em Pete (stereo)
TTITLE11=Betty and Dupree  (stereo)
TTITLE12=See See Rider (stereo)
EXTD=YEAR: 1992
EXTT0=
EXTT1=
EXTT2=
EXTT3=
EXTT4=
EXTT5=
EXTT6=
EXTT7=
EXTT8=
EXTT9=
EXTT10=
EXTT11=
EXTT12=
PLAYORDER=
